HIERARCHY
ROOT hip
{
	OFFSET 0.000000 0.000000 0.000000
	CHANNELS 6 Xposition Yposition Zposition Xrotation Zrotation Yrotation 
	JOINT abdomen
	{
		OFFSET 0.000000 3.422050 0.000000
		CHANNELS 3 Xrotation Zrotation Yrotation 
		JOINT chest
		{
			OFFSET 0.000000 8.486693 -0.684411
			CHANNELS 3 Xrotation Zrotation Yrotation 
			JOINT neck
			{
				OFFSET 0.000000 10.266162 -0.273764
				CHANNELS 3 Xrotation Zrotation Yrotation 
				JOINT head
				{
					OFFSET 0.000000 3.148285 0.000000
					CHANNELS 3 Xrotation Zrotation Yrotation 
					End Site
					{
						OFFSET 0.000000 3.148289 0.000000
					}
				}
			}
			JOINT lCollar
			{
				OFFSET 3.422053 6.707223 -0.821293
				CHANNELS 3 Yrotation Zrotation Xrotation 
				JOINT lShldr
				{
					OFFSET 3.285171 0.000000 0.000000
					CHANNELS 3 Zrotation Yrotation Xrotation 
					JOINT lForeArm
					{
						OFFSET 10.129278 0.000000 0.000000
						CHANNELS 3 Yrotation Zrotation Xrotation 
						JOINT lHand
						{
							OFFSET 8.486692 0.000000 0.000000
							CHANNELS 3 Zrotation Yrotation Xrotation 
							End Site
							{
								OFFSET 4.106464 0.000000 0.000000
							}
						}
					}
				}
			}
			JOINT rCollar
			{
				OFFSET -3.558935 6.707223 -0.821293
				CHANNELS 3 Yrotation Zrotation Xrotation 
				JOINT rShldr
				{
					OFFSET -3.148289 0.000000 0.000000
					CHANNELS 3 Zrotation Yrotation Xrotation 
					JOINT rForeArm
					{
						OFFSET -10.266159 0.000000 0.000000
						CHANNELS 3 Yrotation Zrotation Xrotation 
						JOINT rHand
						{
							OFFSET -8.349810 0.000000 0.000000
							CHANNELS 3 Zrotation Yrotation Xrotation 
							End Site
							{
								OFFSET -4.106464 0.000000 0.000000
							}
						}
					}
				}
			}
		}
	}
	JOINT lThigh
	{
		OFFSET 5.338403 -1.642589 1.368821
		CHANNELS 3 Xrotation Zrotation Yrotation 
		JOINT lShin
		{
			OFFSET -2.053232 -20.121670 0.000000
			CHANNELS 3 Xrotation Zrotation Yrotation 
			JOINT lFoot
			{
				OFFSET 0.000000 -19.300380 -1.231939
				CHANNELS 3 Xrotation Yrotation Zrotation 
				End Site
				{
					OFFSET 0.000000 -2.463878 4.653993
				}
			}
		}
	}
	JOINT rThigh
	{
		OFFSET -5.338403 -1.642589 1.368821
		CHANNELS 3 Xrotation Zrotation Yrotation 
		JOINT rShin
		{
			OFFSET 2.053232 -20.121670 0.000000
			CHANNELS 3 Xrotation Zrotation Yrotation 
			JOINT rFoot
			{
				OFFSET 0.000000 -19.300380 -1.231939
				CHANNELS 3 Xrotation Yrotation Zrotation 
				End Site
				{
					OFFSET 0.000000 -2.463878 4.653993
				}
			}
		}
	}
}
MOTION
Frames: 17
Frame Time: 0.099947
0.000000 43.528500 0.000000 0.000000 0.000000 0.000000 0.000000 0.000000 0.000000 0.000000 0.000000 0.000000 0.000000 0.000000 0.000000 0.000000 0.000000 0.000000 0.000000 0.000000 0.000000 0.000000 0.000000 0.000000 0.000000 0.000000 0.000000 0.000000 0.000000 0.000000 0.000000 0.000000 0.000000 0.000000 0.000000 0.000000 0.000000 0.000000 0.000000 0.000000 0.000000 0.000000 0.000000 0.000000 0.000000 0.000000 0.000000 0.000000 0.000000 0.000000 0.000000 0.000000 0.000000 0.000000 0.000000 0.000000 0.000000 0.000000 0.000000 0.000000 
0.000000 -0.004688 0.000000 -89.002243 0.000000 0.000000 0.000000 -0.099664 0.000000 0.000000 0.000000 0.000000 16.997015 0.000000 0.000000 -1.001933 0.000000 0.000000 0.000000 0.000000 0.000000 15.000198 -0.003376 -60.004189 -40.003777 4.997879 -20.001980 14.998176 0.000000 0.000000 29.998716 0.000000 0.000000 -47.000240 -14.002350 -60.001888 131.998062 -5.001378 -20.000370 0.000000 0.000000 0.000000 0.000000 -11.003080 0.000000 0.000000 0.000000 0.000000 20.996786 0.000000 0.000000 -5.001493 1.997036 -0.001455 0.000000 0.000000 0.292001 30.999262 -0.002435 8.997367 
0.000000 -0.004688 0.000000 -89.002243 0.000000 0.000000 0.000000 -0.098647 0.000000 0.000000 0.000000 0.000000 16.997015 0.000000 0.000000 -1.138756 -0.029753 0.495376 0.000000 0.000000 0.000000 14.425999 -0.003339 -60.004154 -39.645111 4.997900 -20.001989 14.998176 0.000000 0.000000 29.998716 0.000000 0.000000 -47.000240 -14.002350 -60.001888 131.998062 -5.001378 -20.000370 0.000000 0.000000 0.000000 0.000000 -11.003080 0.000000 0.000000 0.000000 -0.299228 20.996786 0.000000 0.000000 -5.001493 1.997036 -0.001455 0.000000 0.000000 0.585366 31.376490 0.026705 8.819923 
0.000000 -0.004688 0.000000 -89.002251 0.000000 0.000000 0.000000 -0.097630 0.000000 0.000000 0.000000 0.000000 16.997015 0.000000 0.000000 -1.275965 -0.058349 0.991307 0.000000 0.000000 0.000000 13.851102 -0.003300 -60.004143 -39.286297 4.997923 -20.002008 14.998177 0.000000 0.000000 29.998716 0.000000 0.000000 -47.000240 -14.002349 -60.001888 131.998062 -5.001378 -20.000370 0.000000 0.000000 0.000000 0.000000 -11.003080 0.000000 0.000000 0.000000 -0.598555 20.996788 0.000000 0.000000 -5.001493 1.997036 -0.001455 0.000000 0.000000 0.878823 31.754045 0.054694 8.642176 
0.000000 -0.004688 0.000000 -89.002243 0.000000 0.000000 0.000000 -0.096613 0.000000 0.000000 0.000000 0.000000 16.997015 0.000000 0.000000 -1.413546 -0.085782 1.487774 0.000000 0.000000 0.000000 13.275525 -0.003261 -60.004112 -38.927315 4.997947 -20.002028 14.998176 0.000000 0.000000 29.998716 0.000000 0.000000 -47.000244 -14.002352 -60.001888 131.998062 -5.001378 -20.000370 0.000000 0.000000 0.000000 0.000000 -11.003080 0.000000 0.000000 0.000000 -0.897975 20.996786 0.000000 0.000000 -5.001493 1.997036 -0.001455 0.000000 0.000000 1.172369 32.131924 0.081527 8.464137 
0.000000 -0.004688 0.000000 -89.002243 0.000000 0.000000 0.000000 -0.095596 0.000000 0.000000 0.000000 0.000000 16.997017 0.000000 0.000000 -1.551484 -0.112044 1.984752 0.000000 0.000000 0.000000 12.699300 -0.003222 -60.004086 -38.568169 4.997970 -20.002043 14.998176 0.000000 0.000000 29.998716 0.000000 0.000000 -47.000240 -14.002350 -60.001888 131.998062 -5.001378 -20.000370 0.000000 0.000000 0.000000 0.000000 -11.003080 0.000000 0.000000 0.000000 -1.197487 20.996788 0.000000 0.000000 -5.001494 1.997036 -0.001455 0.000000 0.000000 1.466000 32.510109 0.107200 8.285821 
0.000000 -0.004688 0.000000 -89.002251 0.000000 0.000000 0.000000 -0.094579 0.000000 0.000000 0.000000 0.000000 16.997017 0.000000 0.000000 -1.689764 -0.137130 2.482221 0.000000 0.000000 0.000000 12.122456 -0.003183 -60.004059 -38.208878 4.997992 -20.002058 14.998176 0.000000 0.000000 29.998716 0.000000 0.000000 -47.000240 -14.002349 -60.001888 131.998062 -5.001377 -20.000370 0.000000 0.000000 0.000000 0.000000 -11.003080 0.000000 0.000000 0.000000 -1.497084 20.996788 0.000000 0.000000 -5.001493 1.997036 -0.001455 0.000000 0.000000 1.759712 32.888584 0.131709 8.107237 
0.000000 -0.004688 0.000000 -89.002251 0.000000 0.000000 0.000000 -0.093563 0.000000 0.000000 0.000000 0.000000 16.997015 0.000000 0.000000 -1.828371 -0.161034 2.980159 0.000000 0.000000 0.000000 11.545020 -0.003144 -60.004040 -37.849453 4.998015 -20.002077 14.998177 0.000000 0.000000 29.998716 0.000000 0.000000 -47.000240 -14.002350 -60.001896 131.998062 -5.001378 -20.000370 0.000000 0.000000 0.000000 0.000000 -11.003080 0.000000 0.000000 0.000000 -1.796763 20.996788 0.000000 0.000000 -5.001493 1.997036 -0.001455 0.000000 0.000000 2.053502 33.267334 0.155050 7.928399 
0.000000 -0.004688 0.000000 -89.002243 0.000000 0.000000 0.000000 -0.092546 0.000000 0.000000 0.000000 0.000000 16.997011 0.000000 0.000000 -1.967288 -0.183749 3.478541 0.000000 0.000000 0.000000 10.967021 -0.003104 -60.004013 -37.489883 4.998037 -20.002092 14.998176 0.000000 0.000000 29.998716 0.000000 0.000000 -47.000240 -14.002348 -60.001881 131.998062 -5.001378 -20.000366 0.000000 0.000000 0.000000 0.000000 -11.003080 0.000000 0.000000 0.000000 -2.096521 20.996786 0.000000 0.000000 -5.001493 1.997036 -0.001455 0.000000 0.000000 2.347365 33.646355 0.177219 7.749321 
0.000000 -0.004688 0.000000 -89.002228 0.000000 0.000000 0.000000 -0.091529 0.000000 0.000000 0.000000 0.000000 16.997011 0.000000 0.000000 -2.106501 -0.205270 3.977346 0.000000 0.000000 0.000000 10.388488 -0.003064 -60.003990 -37.130192 4.998060 -20.002111 14.998176 0.000000 0.000000 29.998716 0.000000 0.000000 -47.000237 -14.002351 -60.001888 131.998062 -5.001378 -20.000370 0.000000 0.000000 0.000000 0.000000 -11.003080 0.000000 0.000000 0.000000 -2.396353 20.996786 0.000000 0.000000 -5.001493 1.997036 -0.001455 0.000000 0.000000 2.641298 34.025627 0.198213 7.570012 
0.000000 -0.004688 0.000000 -89.002243 0.000000 0.000000 0.000000 -0.090512 0.000000 0.000000 0.000000 0.000000 16.997015 0.000000 0.000000 -2.245994 -0.225593 4.476552 0.000000 0.000000 0.000000 9.809449 -0.003024 -60.003979 -36.770378 4.998083 -20.002131 14.998176 0.000000 0.000000 29.998716 0.000000 0.000000 -47.000240 -14.002348 -60.001881 131.998062 -5.001378 -20.000368 0.000000 0.000000 0.000000 0.000000 -11.003079 0.000000 0.000000 0.000000 -2.696254 20.996786 0.000000 0.000000 -5.001493 1.997036 -0.001455 0.000000 0.000000 2.935298 34.405140 0.218028 7.390486 
0.000000 -0.004688 0.000000 -89.002243 0.000000 0.000000 0.000000 -0.089495 0.000000 0.000000 0.000000 0.000000 16.997015 0.000000 0.000000 -2.385751 -0.244711 4.976137 0.000000 0.000000 0.000000 9.229932 -0.002984 -60.003952 -36.410446 4.998105 -20.002148 14.998176 0.000000 0.000000 29.998716 0.000000 0.000000 -47.000240 -14.002350 -60.001888 131.998062 -5.001378 -20.000370 0.000000 0.000000 0.000000 0.000000 -11.003080 0.000000 0.000000 0.000000 -2.996222 20.996786 0.000000 0.000000 -5.001493 1.997036 -0.001455 0.000000 0.000000 3.229358 34.784866 0.236661 7.210753 
0.000000 -0.004688 0.000000 -89.002243 0.000000 0.000000 0.000000 -0.088478 0.000000 0.000000 0.000000 0.000000 16.997015 0.000000 0.000000 -2.525756 -0.262621 5.476075 0.000000 0.000000 0.000000 8.649966 -0.002943 -60.003918 -36.050415 4.998127 -20.002169 14.998176 0.000000 0.000000 29.998716 0.000000 0.000000 -47.000240 -14.002350 -60.001888 131.998062 -5.001378 -20.000370 0.000000 0.000000 0.000000 0.000000 -11.003080 0.000000 0.000000 0.000000 -3.296252 20.996786 0.000000 0.000000 -5.001493 1.997036 -0.001455 0.000000 0.000000 3.523477 35.164810 0.254109 7.030828 
0.000000 -0.004688 0.000000 -89.002243 0.000000 0.000000 0.000000 -0.087461 0.000000 0.000000 0.000000 0.000000 16.997015 0.000000 0.000000 -2.665993 -0.279317 5.976344 0.000000 0.000000 0.000000 8.069585 -0.002902 -60.003910 -35.690269 4.998147 -20.002182 14.998176 0.000000 0.000000 29.998716 0.000000 0.000000 -47.000240 -14.002350 -60.001888 131.998062 -5.001378 -20.000370 0.000000 0.000000 0.000000 0.000000 -11.003080 0.000000 0.000000 0.000000 -3.596339 20.996786 0.000000 0.000000 -5.001493 1.997036 -0.001455 0.000000 0.000000 3.817651 35.544956 0.270370 6.850726 
0.000000 -0.004688 0.000000 -89.002243 0.000000 0.000000 0.000000 -0.086444 0.000000 0.000000 0.000000 0.000000 16.997015 0.000000 0.000000 -2.806446 -0.294797 6.476922 0.000000 0.000000 0.000000 7.488814 -0.002861 -60.003883 -35.330044 4.998170 -20.002201 14.998176 0.000000 0.000000 29.998716 0.000000 0.000000 -47.000240 -14.002350 -60.001888 131.998062 -5.001378 -20.000370 0.000000 0.000000 0.000000 0.000000 -11.003080 0.000000 0.000000 0.000000 -3.896479 20.996786 0.000000 0.000000 -5.001493 1.997036 -0.001455 0.000000 0.000000 4.111875 35.925274 0.285440 6.670453 
0.000000 -0.004688 0.000000 -89.002243 0.000000 0.000000 0.000000 -0.085427 0.000000 0.000000 0.000000 0.000000 16.997015 0.000000 0.000000 -2.947098 -0.309056 6.977784 0.000000 0.000000 0.000000 6.907682 -0.002820 -60.003860 -34.969723 4.998190 -20.002214 14.998176 0.000000 0.000000 29.998716 0.000000 0.000000 -47.000240 -14.002350 -60.001888 131.998062 -5.001378 -20.000370 0.000000 0.000000 0.000000 0.000000 -11.003080 0.000000 0.000000 0.000000 -4.196669 20.996786 0.000000 0.000000 -5.001493 1.997036 -0.001455 0.000000 0.000000 4.406146 36.305767 0.299318 6.490027 
0.000000 -0.004688 0.000000 -89.002251 0.000000 0.000000 0.000000 -0.084410 0.000000 0.000000 0.000000 0.000000 16.997015 0.000000 0.000000 -3.087935 -0.322090 7.478909 0.000000 0.000000 0.000000 6.326219 -0.002778 -60.003834 -34.609337 4.998213 -20.002239 14.998176 0.000000 0.000000 29.998716 0.000000 0.000000 -47.000240 -14.002350 -60.001888 131.998062 -5.001378 -20.000370 0.000000 0.000000 0.000000 0.000000 -11.003080 0.000000 0.000000 0.000000 -4.496904 20.996786 0.000000 0.000000 -5.001493 1.997036 -0.001455 0.000000 0.000000 4.700459 36.686417 0.312000 6.309458 
